<svg id="SvgjsSvg1031" width="288" height="288" xmlns="http://www.w3.org/2000/svg" version="1.1" xmlns:xlink="http://www.w3.org/1999/xlink" xmlns:svgjs="http://svgjs.com/svgjs"><circle id="SvgjsCircle1039" r="144" cx="144" cy="144" transform="matrix(0.7916,0,0,0.7916,30.009600000000006,30.009600000000006)" fill="#a52a2a"></circle><defs id="SvgjsDefs1032"></defs><g id="SvgjsG1033" transform="matrix(0.4652,0,0,0.4652,77.04173213806152,77.9950627532959)"><svg xmlns="http://www.w3.org/2000/svg" viewBox="0 0 24 24" width="288" height="288"><path d="M12.43,3.85C9.49,3.62,7.29,6,6.83,8.76a34.15,34.15,0,0,1-.73,4.49A7.82,7.82,0,0,1,3.73,17c-.35.29,0,.84.35.85q7.92.12,15.84,0c.4,0,.7-.56.35-.85a7.92,7.92,0,0,1-2.37-3.71,38.32,38.32,0,0,1-.75-4.64c-.49-2.67-2.72-5-5.58-4.77-.64,0-.65,1.05,0,1a4.24,4.24,0,0,1,3.5,1.51,7,7,0,0,1,1.31,4.12c.27,2.69,1.05,5.38,3.19,7.19l.35-.85q-7.92.12-15.84,0l.35.85c2.1-1.75,2.9-4.42,3.17-7A7.51,7.51,0,0,1,8.87,6.41a4.22,4.22,0,0,1,3.56-1.56c.64.05.64-.95,0-1Z" fill="#ffffff" class="svgShape color000000-0 selectable"></path><path d="M11.46 3.82V3.5a.76.76 0 010-.15c0 .13 0 0 0-.06s0-.1 0-.11l0 .06 0-.06 0-.05s0 0 0 0l.05 0s0 0 0 0l.1-.06.05 0 0 0 .2-.05c-.08 0-.1 0 0 0h.24s0 0-.05 0l.1 0 .1 0 .06 0c-.08 0-.09 0 0 0l.1 0 .05 0 0 0a.46.46 0 01.07.07c.06.06-.07-.1 0 0l.06.09a.17.17 0 010 0s0 0 0 0 0 .14.06.21 0 .06 0 .09 0-.14 0 0v.23c0 .13 0-.09 0 0s0 .07 0 .1a.5.5 0 001 .27 1.77 1.77 0 00-.6-1.88 1.64 1.64 0 00-2 .18 1.89 1.89 0 00-.38 1.37.51.51 0 00.5.5.51.51 0 00.5-.5zM12.2 19.15H9.49a.51.51 0 00-.43.75s0 .1 0 0a.5.5 0 010 .13l.17.39a3.23 3.23 0 00.5.76 3.15 3.15 0 001.92 1.16c1.55.23 2.88-1.16 3.3-2.54a.5.5 0 00-.48-.63H11.8a.5.5 0 000 1h2.71L14 19.51c-.28.91-1.23 2-2.31 1.79a2.4 2.4 0 01-1.33-1 5.16 5.16 0 01-.47-.94l-.43.75H12.2a.5.5 0 000-1zM9.73 10.24l3.36 3.36.48.48a.5.5 0 00.7-.71L10.91 10l-.48-.48c-.45-.46-1.16.25-.7.71z" fill="#ffffff" class="svgShape color000000-1 selectable"></path><path d="M13.57,9.53,10.2,12.89l-.47.48a.5.5,0,0,0,.7.71l3.37-3.36.47-.48c.46-.46-.25-1.17-.7-.71Z" fill="#ffffff" class="svgShape color000000-2 selectable"></path></svg></g></svg>